<svg xmlns="http://www.w3.org/2000/svg" viewBox="0 0 538.35 85.74" fill="none" height="500" width="800" id="logo">
    <path className="testfucker" stroke="white" strokeWidth="3" d="M5.54,83.33a3.9,3.9,0,0,1-4-4V6.37a3.9,3.9,0,0,1,4-4H24.21a43.79,43.79,0,0,1,16.34,3,37.24,37.24,0,0,1,12.81,8.4,38.35,38.35,0,0,1,8.35,12.8,43.37,43.37,0,0,1,2.95,16.29,43.73,43.73,0,0,1-2.95,16.33A38.11,38.11,0,0,1,53.36,72a37.24,37.24,0,0,1-12.81,8.4,43.79,43.79,0,0,1-16.34,3Zm4-7H24a32.36,32.36,0,0,0,16.73-4.27A30.43,30.43,0,0,0,52.13,60.32a34.77,34.77,0,0,0,4.12-17,34.71,34.71,0,0,0-4.12-17A30.09,30.09,0,0,0,40.75,14.55,32.72,32.72,0,0,0,24,10.33H9.5Z" />
    <path stroke="white" strokeWidth="3" d="M84.5,83.33a3.81,3.81,0,0,1-2.87-1.17,4.12,4.12,0,0,1-1.13-3V6.49a4.12,4.12,0,0,1,1.13-3A3.81,3.81,0,0,1,84.5,2.33h48.1a3.92,3.92,0,0,1,2.82,1.12,3.84,3.84,0,0,1,1.18,2.93,3.79,3.79,0,0,1-1.18,2.78,3.84,3.84,0,0,1-2.82,1.17H88.5v28h33a4,4,0,0,1,2.94,1.16,4.06,4.06,0,0,1,0,5.68,4,4,0,0,1-2.94,1.16H88.5v29h44.1a3.84,3.84,0,0,1,2.82,1.17,3.79,3.79,0,0,1,1.18,2.78,3.84,3.84,0,0,1-1.18,2.93,3.92,3.92,0,0,1-2.82,1.12Z" />
    <path stroke="white" strokeWidth="3" d="M176.86,84.24a38,38,0,0,1-12.24-1.91,29.79,29.79,0,0,1-9.76-5.43,24,24,0,0,1-6.3-8.16,3.08,3.08,0,0,1-.05-3,4.14,4.14,0,0,1,2.64-1.92,3.77,3.77,0,0,1,2.84.31,4.82,4.82,0,0,1,2.11,2.17,16.62,16.62,0,0,0,4.55,5.37,21.62,21.62,0,0,0,7.12,3.67,30.44,30.44,0,0,0,9.09,1.29,24.44,24.44,0,0,0,9.71-1.81,15.14,15.14,0,0,0,6.67-5.26,14.37,14.37,0,0,0,2.42-8.42A14.68,14.68,0,0,0,191,50.25q-4.65-4.55-14.57-5.78Q164.36,43,157.55,37a19,19,0,0,1-6.82-14.82,18.2,18.2,0,0,1,3.36-10.95A21.67,21.67,0,0,1,163.33,4,34,34,0,0,1,176.86,1.5,28,28,0,0,1,195.3,8.06a27.14,27.14,0,0,1,5.63,6.45,4.16,4.16,0,0,1,.67,3.21,3.58,3.58,0,0,1-1.8,2.37,4.31,4.31,0,0,1-5.58-1.75,23.74,23.74,0,0,0-3.88-4.5,17.08,17.08,0,0,0-5.63-3.35,24.13,24.13,0,0,0-8-1.35q-8.16,0-13.12,3.46t-4.95,10.07a11.91,11.91,0,0,0,1.85,6.46,14.71,14.71,0,0,0,6.15,5.06,39,39,0,0,0,11.52,3.15q12.9,1.86,19.16,7.9T203.62,61a23.18,23.18,0,0,1-2,9.91,19.91,19.91,0,0,1-5.68,7.28,26,26,0,0,1-8.57,4.5A34.74,34.74,0,0,1,176.86,84.24Z" />
    <path stroke="white" strokeWidth="3" d="M224.5,82.92a3.87,3.87,0,0,1-4-4V6.82a4,4,0,1,1,8,0v72.1a3.87,3.87,0,0,1-4,4Z" />
    <path stroke="white" strokeWidth="3" d="M285.42,84.24A38.38,38.38,0,0,1,269.77,81,39.89,39.89,0,0,1,257,72.1a42,42,0,0,1-8.63-13.22,41.51,41.51,0,0,1-3.1-16.06,42,42,0,0,1,3-16,40.77,40.77,0,0,1,8.57-13.17,41.2,41.2,0,0,1,12.81-8.94A38.12,38.12,0,0,1,285.42,1.5,40,40,0,0,1,299,3.67a38.35,38.35,0,0,1,11.78,6.92,2.64,2.64,0,0,1,1.08,1.7,3,3,0,0,1-.26,1.86,2.58,2.58,0,0,1-1.23,1.29,1.84,1.84,0,0,1-1,1.24,3.41,3.41,0,0,1-1.91.31,3.88,3.88,0,0,1-2.12-.93,27.16,27.16,0,0,0-8.78-5.21,32.55,32.55,0,0,0-11.05-1.71,29.68,29.68,0,0,0-12.55,2.69,33.38,33.38,0,0,0-10.28,7.33,34.71,34.71,0,0,0-7,10.74,33.33,33.33,0,0,0-2.53,12.92,33.77,33.77,0,0,0,2.53,13.11,34.64,34.64,0,0,0,7,10.75A32.73,32.73,0,0,0,272.87,74a30.26,30.26,0,0,0,12.55,2.63,30.85,30.85,0,0,0,10.74-1.86,35.92,35.92,0,0,0,9.61-5.37,3.24,3.24,0,0,1,2.63-.82,4.19,4.19,0,0,1,2.43,1.24,3.6,3.6,0,0,1,1,2.68,5,5,0,0,1-.2,1.5,3.52,3.52,0,0,1-.93,1.39A30.48,30.48,0,0,1,299,82.22,45.56,45.56,0,0,1,285.42,84.24Zm26.08-11.9-8-1.62V50.33H287.08a4.3,4.3,0,0,1-2.92-1A3.45,3.45,0,0,1,283,46.45a3,3,0,0,1,1.14-2.16,4.45,4.45,0,0,1,2.95-1h20.31a4.17,4.17,0,0,1,2.95,1.06,3.64,3.64,0,0,1,1.16,2.79Z" />
    <path stroke="white" strokeWidth="3" d="M332.07,83.17a3.77,3.77,0,0,1-2.44-1.11,3.9,3.9,0,0,1-1.13-2.87V6.3a3.93,3.93,0,0,1,4.06-4.06,4,4,0,0,1,3.13,1.46L385.5,69.14V6.55a3.9,3.9,0,0,1,1.13-2.87,3.81,3.81,0,0,1,2.45-1.12,4.87,4.87,0,0,1,3.24,1.11,3.83,3.83,0,0,1,1.18,2.88V79.43a3.87,3.87,0,0,1-1.43,3.13,4.1,4.1,0,0,1-2,.9,4.52,4.52,0,0,1-2.26-.28,2.86,2.86,0,0,1-1.36-1L336.5,16.7V79.19a3.8,3.8,0,0,1-1.19,2.88A4.83,4.83,0,0,1,332.07,83.17Z" />
    <path stroke="white" strokeWidth="3" d="M418.5,83.33a3.81,3.81,0,0,1-2.87-1.17,4.16,4.16,0,0,1-1.13-3V6.49a4.16,4.16,0,0,1,1.13-3,3.81,3.81,0,0,1,2.87-1.17h48.1a3.92,3.92,0,0,1,2.82,1.12,3.84,3.84,0,0,1,1.18,2.93,3.79,3.79,0,0,1-1.18,2.78,3.84,3.84,0,0,1-2.82,1.17H422.5v28h32.95a4,4,0,0,1,2.95,1.16,4.08,4.08,0,0,1,0,5.68,4,4,0,0,1-2.95,1.16H422.5v29h44.1a3.84,3.84,0,0,1,2.82,1.17,3.79,3.79,0,0,1,1.18,2.78,3.84,3.84,0,0,1-1.18,2.93,3.92,3.92,0,0,1-2.82,1.12Z" />
    <path stroke="white" strokeWidth="3" d="M489.5,82.9a3.87,3.87,0,0,1-2.87-1.14,3.93,3.93,0,0,1-1.13-2.89V6.35a3.94,3.94,0,0,1,1.13-2.89,3.9,3.9,0,0,1,2.87-1.13h19.18A27.63,27.63,0,0,1,522,5.48a23.24,23.24,0,0,1,9.18,8.76,25,25,0,0,1,3.34,13,23.49,23.49,0,0,1-3.34,12.48A23.18,23.18,0,0,1,522,48.23a28,28,0,0,1-13.33,3.1H493.5V78.87a3.93,3.93,0,0,1-1.13,2.89A3.87,3.87,0,0,1,489.5,82.9Zm4-38.57H509a20.27,20.27,0,0,0,9.47-2.14A16.79,16.79,0,0,0,525,36.27a15.61,15.61,0,0,0,2.41-8.57,17,17,0,0,0-2.41-9,16.68,16.68,0,0,0-6.54-6.12,19.81,19.81,0,0,0-9.47-2.2H493.5ZM532.7,83.2a3.82,3.82,0,0,1-2.12-.51,4.83,4.83,0,0,1-1.39-1.55L509.36,49.53l8-2.07L535.9,77q1.54,2.47.57,4.33C535.81,82.58,534.56,83.2,532.7,83.2Z" />
</svg>
