<svg xmlns="http://www.w3.org/2000/svg" viewBox="0 0 1067 1067" width={500} height={500} id="logo">
    <path d="M590.5,77C298.62,77,62,313.62,62,605.5S298.62,1134,590.5,1134,1119,897.38,1119,605.5,882.38,77,590.5,77Z" transform="translate(-57 -72)" fill="none" stroke="#000" strokeMiterlimit="10" strokeWidth="10" />
    <path d="M589.86,130.24c-262.69,0-475.65,213-475.65,475.65s213,475.65,475.65,475.65,475.65-213,475.65-475.65-213-475.65-475.65-475.65Z" transform="translate(-57 -72)" fill="none" stroke="#000" strokeMiterlimit="10" strokeWidth="10" />
    <path d="M440.42,1052.81C439,897.61,457.31,674.22,552.26,428A1661.56,1661.56,0,0,1,691,149.46,2380.24,2380.24,0,0,0,509.24,924.84,712.12,712.12,0,0,1,585.6,765.67C677.3,623.32,799,547.22,869.51,510.8A1208.09,1208.09,0,0,0,746.91,642c-125.32,156-189.4,315.45-223.68,433.4" transform="translate(-62 -77)" fill="none" stroke="#000" strokeMiterlimit="10" strokeWidth="10" />

</svg>
