<svg id="Layer_1" data-name="Layer 1"
    xmlns="http://www.w3.org/2000/svg" viewBox="0 0 790.63 615.91">
    <defs>
        <style>.cls-1{fill:#c9e338;}.cls-2{fill:#b2ce28;}.cls-3{fill:#95c905;}.cls-4{fill:#d7ef65;}</style>
    </defs>
    <path class="cls-1" d="M984,375c-25.88,36-56.76,22.47-95.5,67.5-40.46,47-22.53,80.09-56,135-28,45.94-85.63,96.62-151.5,100.5-86.63,5.11-156.88-78.24-192.5-120.5-57.95-68.75-36.26-87-110.5-182.5-40.48-52.09-66.65-72.07-63.5-105.5,2.33-24.69,19.6-45.69,93-93C537.59,92.64,619.94,39.56,681,72c32,17,22.7,38.62,58.5,59.5,68.7,40.07,130.68-23.38,188,5C998.71,171.76,1030.6,310.14,984,375Z" transform="translate(-220.68 -62.36)"/>
    <g id="Layer_2" data-name="Layer 2">
        <path class="cls-2" d="M960,160c3.7,4.51,8.47,13.67,18,32,2.76,5.3,6.84,13.17,12,24,7.92,16.61,13.79,30.59,15.1,33.88,11.61,29.35,9.74,94.46-30.1,131.12-7.38,6.8-27.39,25.21-48.19,20.36C906.39,396.61,896.58,372.09,890,355c-21.28-55.31,3-75.08-14-116-19.91-47.81-67.37-55.06-62-78,5.31-22.68,54.92-29.33,60.94-30.14,8.64-1.15,27.87-3.5,50.06,5.14C932.19,138.8,947.72,145.05,960,160Z" transform="translate(-220.68 -62.36)"/>
        <path class="cls-3" d="M515,587c8.11-4.2,20.57-8.94,34-6,18.9,4.14,21.92,18.68,40.27,28,19,9.69,40.32,2.87,63.24-4.47,5.47-1.76,23.31-7.77,59.91-32.48C773.89,530.58,805.35,510.9,811,506c5.25-4.56,19.2-17,38-17a44.44,44.44,0,0,1,13,2c-1.5,21.75-8,69.14-43,111-25.54,30.57-55.5,45.55-76,55.47-23.52,11.39-39.21,19-62,20.53-36,2.44-63.28-12.51-88-26A265.08,265.08,0,0,1,515,587Z" transform="translate(-220.68 -62.36)"/>
        <path class="cls-3" d="M551,653" transform="translate(-220.68 -62.36)"/>
        <path class="cls-3" d="M904,525" transform="translate(-220.68 -62.36)"/>
    </g>
    <path class="cls-4" d="M812.74,307c-16,12.86-42-24.09-105.74-29-60.63-4.68-130.5,21.49-138,58-4.3,20.95,15.43,28.19,31,73,12.07,34.74,22.76,95.3,1.7,109.07-25.85,16.9-95.26-37.87-134.08-83.93C428,387.07,381.43,349,390.65,307c6-27.33,17.71-46.61,35.35-68,76.58-92.91,197-100.63,216.44-101.58C678.1,135.68,707.16,139.74,743,153,803.28,175.31,837.37,287.22,812.74,307Z" transform="translate(-220.68 -62.36)"/>
    <path class="cls-1" d="M556,185l98-96" transform="translate(-220.68 -62.36)"/>
    <path class="cls-1" d="M378,375" transform="translate(-220.68 -62.36)"/>
    <path class="cls-4" d="M433,533c11.25,34.24-48.1,87.56-100,112-26.6,12.52-50.81,23.92-73,14-42.12-18.84-39.82-97.92-39-126,1-33.21,1.73-59.28,22-77,23.2-20.28,59.88-19.06,84-8,16.95,7.77,16.14,15.09,43,38C411,521,427.55,516.41,433,533Z" transform="translate(-220.68 -62.36)"/>
    <path class="cls-1" d="M306,511c-47.47,46.6-45.84,95.65-58,94-16.44-2.23-35.78-94.12,7-138,5-5.17,22-22.52,44-20,15.61,1.79,32.49,13.39,34,27S320.16,497.1,306,511Z" transform="translate(-220.68 -62.36)"/>
    <path class="cls-2" d="M333.32,509.79c2.62-7.4,83.29-5.08,91.58,30.75,6.9,29.79-40,66.39-49.77,60.73-7.06-4.09,9.42-27.93-1.82-54.2C361.86,520.32,331.67,514.45,333.32,509.79Z" transform="translate(-220.68 -62.36)"/>
</svg>